<svg width="30" height="30" viewBox="0 0 30 30" fill="none" xmlns="http://www.w3.org/2000/svg">
<path d="M27.538 24.2201L25.8715 9.22006C25.8336 8.87597 25.67 8.558 25.412 8.32713C25.1541 8.09626 24.82 7.96876 24.4738 7.96908H20.1343C20.0175 6.68823 19.426 5.49732 18.4761 4.63016C17.5263 3.763 16.2865 3.28223 15.0004 3.28223C13.7142 3.28223 12.4745 3.763 11.5246 4.63016C10.5747 5.49732 9.98325 6.68823 9.86637 7.96908H5.52692C5.18075 7.96876 4.84665 8.09626 4.5887 8.32713C4.33076 8.558 4.16714 8.87597 4.12922 9.22006L2.4627 24.2201C2.44086 24.4166 2.46073 24.6156 2.52101 24.8039C2.58128 24.9923 2.68061 25.1658 2.8125 25.3132C2.94439 25.4605 3.10588 25.5784 3.28643 25.6591C3.46697 25.7398 3.66251 25.7816 3.86028 25.7816H26.1403C26.3381 25.7816 26.5336 25.7399 26.7142 25.6592C26.8948 25.5785 27.0563 25.4606 27.1882 25.3132C27.3201 25.1658 27.4194 24.9923 27.4797 24.804C27.54 24.6156 27.5599 24.4166 27.538 24.2201ZM15.0004 4.21908C16.0376 4.22046 17.0381 4.60342 17.8112 5.29499C18.5843 5.98655 19.0759 6.93838 19.1924 7.96908H10.8083C10.9248 6.93838 11.4164 5.98655 12.1895 5.29499C12.9626 4.60342 13.9631 4.22046 15.0004 4.21908ZM26.4897 24.688C26.4459 24.7374 26.3922 24.7769 26.3319 24.8038C26.2717 24.8307 26.2064 24.8445 26.1404 24.8441H3.86028C3.79436 24.8441 3.72918 24.8302 3.669 24.8033C3.60882 24.7763 3.55499 24.737 3.51103 24.6879C3.46707 24.6388 3.43396 24.5809 3.41388 24.5182C3.39379 24.4554 3.38717 24.3891 3.39446 24.3235L5.0611 9.32354C5.07374 9.20886 5.12828 9.10289 5.21424 9.02594C5.30021 8.949 5.41155 8.90649 5.52692 8.90658H9.84411V12.1878C9.84411 12.3122 9.89349 12.4314 9.9814 12.5193C10.0693 12.6072 10.1885 12.6566 10.3129 12.6566C10.4372 12.6566 10.5564 12.6072 10.6443 12.5193C10.7322 12.4314 10.7816 12.3122 10.7816 12.1878V8.90658H19.2191V12.1878C19.2191 12.3122 19.2685 12.4314 19.3564 12.5193C19.4443 12.6072 19.5635 12.6566 19.6879 12.6566C19.8122 12.6566 19.9314 12.6072 20.0193 12.5193C20.1072 12.4314 20.1566 12.3122 20.1566 12.1878V8.90658H24.4738C24.5892 8.90649 24.7005 8.949 24.7865 9.02594C24.8724 9.10289 24.927 9.20886 24.9396 9.32354L26.6063 24.3235C26.6139 24.3891 26.6075 24.4555 26.5873 24.5184C26.5672 24.5812 26.5339 24.639 26.4897 24.688Z" fill="white"/>
</svg>
