<?xml version="1.0" encoding="UTF-8" standalone="no"?>
<svg
   xmlns:svg="http://www.w3.org/2000/svg"
   xmlns="http://www.w3.org/2000/svg"
   version="1.1"
   width="391"
   height="464"
   id="svg2">
  <g
     aria-label="Rr"
     style="font-family:'URW Gothic L'"
     id="text8">
    <path
       d="m 137.55,242.8 c 63.9,-6.75 98.1,-42.3 98.1,-101.25 C 235.65,99.7 218.1,68.2 185.7,50.65 165,39.4 136.2,34.45 92.55,34.45 H 10.2 V 367 H 43.5 V 64.6 h 46.8 c 35.1,0 58.5,3.6 76.5,12.15 22.5,10.8 35.1,33.3 35.1,63.45 0,37.8 -17.1,61.2 -50.4,70.2 -15.75,4.05 -37.35,5.85 -74.25,5.85 L 189.3,367 h 41.4 z"
       id="path4" />
    <path
       d="m 277.68984,367 h 33.3 V 223.45 c 0,-45.9 23.4,-71.1 69.75,-75.6 V 115 c -35.55,1.8 -56.7,13.95 -69.75,40.95 v -35.1 h -33.3 z"
       id="path6" />
  </g>
</svg>
